<svg xmlns="http://www.w3.org/2000/svg" xmlns:xlink="http://www.w3.org/1999/xlink" viewBox="0 0 112 153" fill="#fff" fill-rule="evenodd" stroke="#000" stroke-linecap="round" stroke-linejoin="round"><style><![CDATA[.B{stroke:none}.C{fill:#fdcc9b}.D{text-anchor:start}.E{font-weight:bold}]]></style><use xlink:href="#A" x=".5" y=".5"/><symbol id="A" overflow="visible"><g class="B"><path d="M38.075 8.14C42.488.566 77.702-6.106 92.067 20.804s7.134 36.343 15.055 45.834.466 31.301-5.044 33.208-3.295 9.452-.613 12.693c11.46 13.824-5.112 37.139-49.365 36.899-47.304-.259-56.577-27.36-44.457-35.816 3.956-2.761 5.491-8.053 1.157-12.721S-5.517 78.851 3.94 64.605 5.078 8.12 38.075 8.14z" fill="#262626"/><path d="M54.096 151.44H.12c0-11.329 28.431-27.989 53.976-27.989s53.976 16.66 53.976 27.989z" fill="#f9f"/><path d="M54.096 123.451c-5.433 0-10.997.76-16.39 2.055.036.048 5.982 7.719 16.39 7.719 9.638 0 16.045-6.569 16.974-7.579-5.575-1.384-11.344-2.195-16.974-2.195z" fill="#96c"/><path d="M93.073 71.44q9.5 0 9.5 9-1.5 13-13 12 0-21 3.5-21z" class="C"/></g><path d="M14.073 71.44q-9.5 0-9.5 9 1.5 13 13 12 0-21-3.5-21z" class="B C"/><g class="B"><path d="M100.026 52.625c0-17.559-14.212-30.409-45.953-30.409S8.12 35.065 8.12 52.625s-3.316 63.816 45.953 63.816 45.953-46.255 45.953-63.816z" class="C"/><g fill="#262626"><path d="M25.644 61.755c2.206 1.103 5.748-3.748 13.856.472 1.478.769 2.36-6.58-6.331-6.58-7.525 0-8.858 5.442-7.525 6.108z"/><path d="M44.773 39.73c-9.308 20.49-13.021 26.538-25.328 21.134s-9.969 9.748-7.736 20.566C.808 66.824 2.091 52.949 5.504 38.857 9.217 23.399 27.967-.114 45.548.312 55.104-.78 69.562.508 84.941 12.199c26.889 20.435 17.891 66.338 10.652 71.741 7.012-42.518-10.156-33.84-21.987-56.098-3.92-9.792-18.771-10.392-28.834 11.888zm37.776 22.025c-2.206 1.103-5.748-3.748-13.855.472-1.478.769-2.36-6.58 6.331-6.58 7.524 0 8.857 5.442 7.524 6.108z"/></g><path d="M52.947 92.815c-4.61 0-6.237-4.871-6.237-3.205s1.333 4.832 7.386 4.832 7.386-3.165 7.386-4.832-3.285 4.705-7.285 2.58z" fill="#fcbc85"/><path d="M28.942 74.417c0-2.831 1.813-5.109 4.065-5.109s4.065 2.279 4.065 5.109-1.813 5.109-4.065 5.109-4.065-2.279-4.065-5.109zm43.5-.586c0-2.831 1.924-5.109 4.315-5.109s4.315 2.279 4.315 5.109-1.925 5.109-4.315 5.109-4.315-2.279-4.315-5.109z" fill="#000"/><g fill="#646464"><circle cx="31.511" cy="72.878" r="1.438"/><circle cx="74.761" cy="72.628" r="1.438"/></g><path d="M53.583 108.57c-2.425 0-3.282-1.109-3.282-.73s.701 1.1 3.886 1.1 3.886-.721 3.886-1.1-1.728 1.071-3.833.587z" fill="#fcbc85"/><path d="M42.573 113.94v11.858q12 12.819 22.75-.32v-10.896z" class="C"/></g><g class="B"><path d="M64.89 103.026a.84.84 0 0 0-.697-.019 25.76 25.76 0 0 1-9.552 1.933c-5.233 0-9.51-1.914-9.552-1.933-.21-.095-.502-.087-.697.019s-.239.283-.103.419c.142.143 3.532 3.496 10.353 3.496s10.212-3.352 10.353-3.496c.135-.137.092-.312-.103-.419" fill="#f7945e"/><g fill="#f9aa8d"><circle cx="26.823" cy="90.19" r="6.25"/><circle cx="83.323" cy="90.19" r="6.25"/></g></g></symbol></svg>