<svg xmlns="http://www.w3.org/2000/svg" xmlns:xlink="http://www.w3.org/1999/xlink" viewBox="0 0 109 147" fill="#fff" fill-rule="evenodd" stroke="#000" stroke-linecap="round" stroke-linejoin="round"><style><![CDATA[.B{stroke:none}.C{fill:#fdcc9b}.D{font-weight:bold}.E{fill:#262626}.F{text-anchor:start}]]></style><use xlink:href="#A" x=".5" y=".5"/><symbol id="A" overflow="visible"><g class="B"><path d="M74.485 73.694c-1.06-3.817-9.506-7.187-12.95 6.393s-1.709 18.339-3.61 23.134S60.509 145.121 71.114 145c11.348-.131 13.819-35.621 11.563-42.809s-.278-28.508-8.192-28.497z" class="E"/><path d="M53.976 146H0c0-11.734 28.431-28.989 53.976-28.989s53.976 17.255 53.976 28.989z" fill="#ffb466"/><path d="M53.976 117.011c-5.433 0-10.997.76-16.39 2.055.036.048 5.982 7.719 16.39 7.719 9.638 0 16.045-6.569 16.974-7.579-5.575-1.384-11.344-2.195-16.974-2.195z" fill="#ff8200"/><path d="M92.952 65q9.5 0 9.5 9-1.5 13-13 12 0-21 3.5-21z" class="C"/></g><path d="M13.952 65q-9.5 0-9.5 9 1.5 13 13 12 0-21-3.5-21z" class="B C"/><g class="B"><path d="M99.905 46.184c0-17.559-14.212-30.409-45.953-30.409S7.999 28.624 7.999 46.184 4.683 110 53.952 110s45.953-46.256 45.953-63.816z" class="C"/><path d="M25.524 55.315c2.206 1.103 5.748-3.748 13.856.472 1.478.769 2.36-6.58-6.331-6.58-7.525 0-8.858 5.442-7.525 6.108zm56.904 0c-2.206 1.103-5.748-3.748-13.855.472-1.478.769-2.36-6.58 6.331-6.58 7.524 0 8.857 5.442 7.524 6.108z" class="E"/><path d="M52.827 86.375c-4.61 0-6.237-4.871-6.237-3.205s1.333 4.832 7.386 4.832 7.386-3.165 7.386-4.832-3.285 4.705-7.285 2.58z" fill="#fcbc85"/><path d="M28.822 67.976c0-2.831 1.813-5.109 4.065-5.109s4.065 2.279 4.065 5.109-1.813 5.109-4.065 5.109-4.065-2.279-4.065-5.109zm43.5-.585c0-2.831 1.924-5.109 4.315-5.109s4.315 2.279 4.315 5.109-1.925 5.109-4.315 5.109-4.315-2.279-4.315-5.109z" fill="#000"/><g fill="#646464"><circle cx="31.39" cy="66.438" r="1.438"/><circle cx="74.64" cy="66.188" r="1.438"/></g><path d="M53.462 102.13c-2.425 0-3.282-1.109-3.282-.73s.701 1.1 3.886 1.1 3.886-.721 3.886-1.1-1.728 1.071-3.833.587z" fill="#fcbc85"/><path d="M42.452 107.5v11.858q12 12.819 22.75-.32v-10.896z" class="C"/></g><g class="B"><path d="M64.77 96.586a.84.84 0 0 0-.697-.019 25.76 25.76 0 0 1-9.552 1.933c-5.233 0-9.51-1.914-9.552-1.933-.21-.095-.502-.087-.697.019s-.239.283-.103.419c.142.143 3.532 3.496 10.353 3.496s10.212-3.352 10.353-3.496c.135-.137.092-.312-.103-.419" fill="#f7945e"/><g fill="#f9aa8d"><circle cx="26.702" cy="83.75" r="6.25"/><circle cx="83.202" cy="83.75" r="6.25"/></g><path d="M44.355 36.855c-9.283 19.007-12.986 24.617-25.26 19.605s-9.943 9.043-7.715 19.078C.508 61.989 1.786 49.118 5.19 36.045 8.894 21.706 27.593-.106 45.128.289c9.531-1.013 23.95.182 39.288 11.028 26.818 18.956 17.844 61.538 10.624 66.55 6.994-39.442-10.129-31.392-21.928-52.039-3.909-9.083-18.721-9.64-28.757 11.028z" class="E"/></g></symbol></svg>