<svg xmlns="http://www.w3.org/2000/svg" xmlns:xlink="http://www.w3.org/1999/xlink" viewBox="0 0 134.167 88.167" fill="#fff" fill-rule="evenodd" stroke="#000" stroke-linecap="round" stroke-linejoin="round"><use xlink:href="#A" x="2.083" y="2.083"/><symbol id="A" overflow="visible"><g stroke="none"><g fill="#5c9e31" fill-rule="nonzero"><path d="M6.25 83.333h114.583V72.917l8.333-8.533V25l-8.333-8.333V0H6.25z"/><path d="M120.833 83.333V72.917l8.333-8.533V25l-8.333-8.333V0h-14.235"/></g><g fill="#b1cc33"><path d="M54.86 83.333H6.25V0h100.348zM2.083 12.5H6.25v18.75H2.083z" fill-rule="nonzero"/><use xlink:href="#C" fill-rule="nonzero"/></g></g><g fill="none" stroke-width="4.167"><path d="M6.25 12.5V0h114.583v16.667L129.167 25v39.383l-8.333 8.533v10.417H6.25V31.25"/><use xlink:href="#C"/><path d="M27.083 29.167V12.5H0v18.75h12.76m5.99 39.583h8.333V62.5H18.75"/></g></symbol><defs ><path id="C" d="M50 62.5h58.333v8.333H50zm-10.417-50h68.75v8.333h-68.75z"/></defs></svg>